<?xml version="1.0" standalone="no"?>
<!DOCTYPE svg PUBLIC "-//W3C//DTD SVG 20010904//EN"
 "http://www.w3.org/TR/2001/REC-SVG-20010904/DTD/svg10.dtd">
<svg version="1.0" xmlns="http://www.w3.org/2000/svg" width="421.000000pt" height="421.000000pt" viewBox="0 0 421.000000 421.000000" preserveAspectRatio="xMidYMid meet">
<metadata>
Created by potrace 1.14, written by Peter Selinger 2001-2017
</metadata>
<g transform="translate(0.000000,421.000000) scale(0.100000,-0.100000)" fill="#000000" stroke="none">
<path d="M2075 4170 c-11 -4 -23 -6 -27 -3 -5 2 -8 -1 -8 -6 0 -6 -7 -11 -15
-11 -8 0 -15 -4 -15 -8 0 -5 -8 -17 -18 -28 -19 -20 -38 -71 -32 -89 1 -5 2
-23 1 -38 -1 -16 2 -34 6 -40 4 -7 8 -16 9 -22 3 -29 18 -76 25 -81 14 -9 10
-43 -8 -72 -10 -15 -45 -54 -78 -87 -33 -32 -59 -63 -57 -67 1 -4 -2 -8 -8 -8
-5 0 -23 -13 -40 -30 -27 -26 -47 -35 -72 -31 -5 0 -8 -4 -8 -11 0 -6 -3 -9
-6 -6 -6 7 -113 -29 -131 -44 -7 -6 -13 -7 -13 -3 0 5 -8 1 -18 -8 -10 -10
-22 -14 -25 -10 -4 3 -7 1 -7 -5 0 -7 -7 -12 -15 -12 -7 0 -19 -8 -24 -17 -6
-10 -11 -15 -11 -11 0 14 -61 -41 -114 -104 l-30 -35 -25 31 c-14 17 -29 33
-33 34 -5 2 -8 10 -8 18 0 8 -4 14 -10 14 -5 0 -10 7 -10 15 0 9 -6 18 -13 21
-8 3 -14 13 -15 22 -5 48 -3 122 2 131 4 5 2 12 -4 16 -6 4 -7 12 -3 18 9 15
13 123 7 160 -4 18 -14 29 -30 33 -28 7 -58 -12 -50 -32 3 -7 2 -15 -2 -18
-10 -6 -15 -112 -16 -358 -1 -115 -4 -208 -8 -208 -4 0 -3 -11 2 -25 5 -14 6
-25 2 -25 -6 0 -8 -79 -2 -105 1 -5 1 -12 0 -15 -1 -3 -4 -61 -5 -130 -6 -190
-14 -262 -31 -281 -11 -13 -17 -43 -19 -104 -2 -48 -5 -89 -8 -92 -11 -11 27
-80 62 -110 71 -64 71 -63 59 -89 -9 -18 -16 -23 -32 -18 -29 9 -29 9 -52 1
-31 -11 -46 -53 -44 -131 2 -90 2 -96 9 -96 3 0 6 -15 7 -33 1 -36 18 -132 24
-132 1 0 3 -12 4 -27 2 -28 1 -28 -57 -28 -65 0 -112 -20 -122 -51 -4 -12 -6
-49 -5 -83 1 -33 2 -77 2 -96 0 -19 5 -41 11 -47 5 -7 6 -13 1 -13 -9 0 -9 -6
1 -185 21 -363 21 -394 5 -428 -7 -15 -17 -27 -22 -27 -4 0 -8 -6 -8 -14 0 -7
-7 -19 -15 -26 -9 -7 -13 -15 -10 -18 3 -3 -1 -15 -8 -26 -16 -24 -42 -97 -39
-108 1 -5 -2 -8 -6 -8 -5 0 -9 -6 -9 -12 -1 -16 -8 -46 -27 -115 -16 -57 -25
-100 -32 -153 l-4 -35 162 1 c90 0 167 -2 172 -4 15 -8 74 -8 69 0 -2 5 8 3
24 -3 31 -12 33 -11 50 2 7 7 13 6 17 0 5 -7 15 -7 31 -1 14 5 25 6 25 2 0 -9
75 -6 90 3 6 3 10 3 10 -2 0 -4 18 -8 40 -8 22 0 40 4 40 8 0 4 9 3 21 -3 15
-8 24 -8 34 0 9 8 15 8 20 0 3 -6 11 -8 16 -4 16 9 79 10 79 1 0 -4 9 -3 19 3
13 7 22 7 26 0 4 -7 12 -7 25 0 11 6 21 6 24 1 7 -10 31 -9 42 2 4 3 15 2 25
-3 12 -7 19 -6 21 2 3 8 10 8 26 -1 12 -6 22 -8 22 -4 0 4 14 8 30 8 17 0 30
-4 30 -8 0 -4 9 -3 19 3 13 6 22 7 26 0 4 -6 15 -6 31 0 17 7 23 7 19 0 -4 -6
2 -7 17 -1 13 4 32 6 43 4 31 -6 143 -5 154 1 5 4 12 2 16 -4 4 -6 11 -7 17
-4 16 10 98 11 98 1 0 -4 9 -3 20 3 14 8 20 8 20 0 0 -7 6 -8 19 0 13 7 22 7
26 0 4 -7 13 -7 26 0 13 8 19 7 19 0 0 -6 5 -8 11 -5 16 10 69 12 69 3 0 -4
12 -3 26 2 18 7 31 7 39 0 9 -8 15 -8 20 0 3 6 11 8 16 4 16 -10 69 -11 69 -1
0 4 4 5 10 2 19 -11 50 -14 50 -4 0 6 5 7 11 3 16 -9 99 -11 99 -1 0 4 9 3 20
-3 13 -7 20 -7 20 -1 0 6 8 7 17 4 22 -8 64 -8 86 0 9 3 17 2 17 -4 0 -6 7 -6
20 1 11 6 20 7 20 3 0 -4 11 -8 25 -8 14 0 25 3 25 6 0 3 54 5 121 5 98 -1
123 2 135 15 8 9 11 19 7 23 -4 3 -8 12 -9 19 -2 13 -8 38 -24 112 -6 28 -13
64 -16 80 -3 17 -10 31 -14 33 -5 2 -6 10 -4 17 3 8 2 20 -2 27 -5 7 -9 18 -9
23 0 6 -8 27 -18 49 -9 21 -17 42 -17 46 0 4 -7 13 -15 20 -8 7 -12 16 -10 21
3 4 -3 12 -12 18 -10 6 -14 11 -10 11 5 0 2 6 -6 14 -9 9 -13 31 -11 58 1 24
3 77 5 118 1 41 7 81 12 88 5 6 5 12 1 12 -5 0 -9 19 -7 43 1 23 2 42 3 42 2
0 10 145 13 240 1 39 6 76 10 83 5 6 4 12 -1 12 -5 0 -7 15 -5 33 6 40 6 107
2 126 -5 20 -32 49 -41 44 -5 -2 -8 0 -8 5 0 5 -25 10 -56 11 -59 2 -78 7 -70
20 3 4 7 25 10 46 7 56 16 97 23 109 7 11 12 69 14 153 3 102 -38 148 -98 112
-18 -12 -34 -16 -37 -10 -4 5 -2 12 4 16 6 4 8 10 5 15 -7 11 15 71 25 65 9
-5 80 64 81 79 0 6 2 20 5 31 11 52 0 195 -18 228 -7 12 -11 25 -10 30 1 4 -2
7 -7 7 -4 0 -9 37 -10 83 -1 45 -4 156 -7 247 -3 91 -7 287 -9 435 -6 380 -8
394 -57 393 -39 -1 -47 -23 -42 -123 2 -44 6 -108 7 -142 2 -38 -1 -64 -7 -67
-6 -3 -5 -5 2 -5 15 -1 -19 -66 -46 -88 -9 -7 -12 -13 -8 -13 5 0 -3 -12 -18
-26 -14 -15 -26 -31 -26 -35 0 -20 -29 -7 -51 23 -21 29 -37 45 -100 103 -9 8
-20 15 -26 15 -6 0 -16 7 -23 15 -7 8 -16 12 -21 9 -5 -3 -9 -1 -9 4 0 5 -31
20 -70 33 -38 13 -70 27 -70 32 0 4 -4 6 -9 3 -5 -3 -27 1 -50 9 -29 10 -70
44 -136 110 -117 117 -130 136 -119 172 4 16 7 31 6 36 -1 4 2 7 6 7 8 0 10 7
14 50 1 11 6 20 11 20 5 0 7 6 4 14 -3 7 0 19 6 25 8 8 8 11 -1 11 -10 0 -10
5 -2 20 6 11 8 26 3 33 -4 6 -8 19 -8 28 -2 25 -46 74 -79 89 -36 16 -75 20
-101 10z"></path>
</g>
</svg>
